<svg xmlns="http://www.w3.org/2000/svg" viewBox="0 0 24 24" fill="white">
  <path d="M12 .5C5.65.5.5 5.65.5 12c0 5.08 3.29 9.39 7.86 10.91.57.1.78-.25.78-.55 
  0-.27-.01-1.16-.02-2.11-3.2.69-3.88-1.54-3.88-1.54-.52-1.32-1.28-1.67-1.28-1.67
  -1.05-.72.08-.71.08-.71 1.16.08 1.77 1.19 1.77 1.19 1.03 1.77 2.7 1.26 
  3.36.96.1-.75.4-1.26.72-1.55-2.55-.29-5.24-1.27-5.24-5.64 
  0-1.25.45-2.27 1.18-3.07-.12-.29-.51-1.45.11-3.02 
  0 0 .96-.31 3.15 1.17a10.9 10.9 0 0 1 5.74 0c2.19-1.48 3.15-1.17 
  3.15-1.17.62 1.57.23 2.73.11 3.02.73.8 1.18 1.82 
  1.18 3.07 0 4.38-2.69 5.35-5.25 5.63.41.36.77 1.08.77 
  2.18 0 1.57-.01 2.83-.01 3.21 0 .3.21.66.79.55A11.5 
  11.5 0 0 0 23.5 12C23.5 5.65 18.35.5 12 .5z"></path>
</svg>